<mxfile host="app.diagrams.net" agent="Mozilla/5.0 (Windows NT 10.0; Win64; x64) AppleWebKit/537.36 (KHTML, like Gecko) Chrome/138.0.0.0 Safari/537.36 Edg/138.0.0.0" version="28.0.7">
  <diagram name="Page-1" id="fBi-SxpYr7Ty-Y2AGAfu">
    <mxGraphModel dx="786" dy="435" grid="1" gridSize="10" guides="1" tooltips="1" connect="1" arrows="1" fold="1" page="1" pageScale="1" pageWidth="827" pageHeight="1169" math="0" shadow="0">
      <root>
        <mxCell id="0" />
        <mxCell id="1" parent="0" />
        <mxCell id="OPx8XuJDMkaGOAgYKpWS-2" value="&lt;font style=&quot;font-size: 24px;&quot;&gt;cvc5&lt;/font&gt;&lt;div&gt;&lt;span style=&quot;font-size: 24px;&quot;&gt;&lt;br&gt;&lt;/span&gt;&lt;div&gt;&lt;div&gt;&lt;font size=&quot;3&quot;&gt;...&lt;/font&gt;&lt;/div&gt;&lt;div&gt;&lt;font size=&quot;3&quot;&gt;&lt;br&gt;&lt;/font&gt;&lt;/div&gt;&lt;div&gt;&lt;font size=&quot;3&quot;&gt;&lt;br&gt;&lt;/font&gt;&lt;/div&gt;&lt;div&gt;&lt;font size=&quot;3&quot;&gt;&lt;br&gt;&lt;/font&gt;&lt;/div&gt;&lt;div&gt;&lt;font size=&quot;3&quot;&gt;&lt;br&gt;&lt;/font&gt;&lt;/div&gt;&lt;/div&gt;&lt;/div&gt;" style="rounded=1;whiteSpace=wrap;html=1;arcSize=5;" vertex="1" parent="1">
          <mxGeometry x="90" y="110" width="370" height="190" as="geometry" />
        </mxCell>
        <mxCell id="OPx8XuJDMkaGOAgYKpWS-10" style="edgeStyle=orthogonalEdgeStyle;rounded=0;orthogonalLoop=1;jettySize=auto;html=1;exitX=0.25;exitY=1;exitDx=0;exitDy=0;entryX=0.5;entryY=0;entryDx=0;entryDy=0;" edge="1" parent="1" source="OPx8XuJDMkaGOAgYKpWS-3" target="OPx8XuJDMkaGOAgYKpWS-7">
          <mxGeometry relative="1" as="geometry" />
        </mxCell>
        <mxCell id="OPx8XuJDMkaGOAgYKpWS-11" style="edgeStyle=orthogonalEdgeStyle;rounded=0;orthogonalLoop=1;jettySize=auto;html=1;exitX=0.75;exitY=1;exitDx=0;exitDy=0;entryX=0.5;entryY=0;entryDx=0;entryDy=0;fillColor=#f8cecc;strokeColor=#b85450;" edge="1" parent="1" source="OPx8XuJDMkaGOAgYKpWS-3" target="OPx8XuJDMkaGOAgYKpWS-8">
          <mxGeometry relative="1" as="geometry" />
        </mxCell>
        <mxCell id="OPx8XuJDMkaGOAgYKpWS-3" value="&lt;font size=&quot;3&quot;&gt;IPASIR-UP&lt;/font&gt;" style="rounded=1;whiteSpace=wrap;html=1;" vertex="1" parent="1">
          <mxGeometry x="240" y="260" width="200" height="30" as="geometry" />
        </mxCell>
        <mxCell id="OPx8XuJDMkaGOAgYKpWS-4" value="&lt;font style=&quot;font-size: 18px;&quot;&gt;MiniSat&lt;/font&gt;" style="rounded=1;whiteSpace=wrap;html=1;" vertex="1" parent="1">
          <mxGeometry x="110" y="260" width="130" height="30" as="geometry" />
        </mxCell>
        <mxCell id="OPx8XuJDMkaGOAgYKpWS-6" value="&lt;font style=&quot;font-size: 18px;&quot;&gt;CDCL(T) sat solver&lt;/font&gt;" style="rounded=1;whiteSpace=wrap;html=1;" vertex="1" parent="1">
          <mxGeometry x="110" y="230" width="330" height="30" as="geometry" />
        </mxCell>
        <mxCell id="OPx8XuJDMkaGOAgYKpWS-7" value="&lt;font size=&quot;3&quot;&gt;CaDiCaL&lt;/font&gt;" style="rounded=1;whiteSpace=wrap;html=1;" vertex="1" parent="1">
          <mxGeometry x="240" y="310" width="100" height="30" as="geometry" />
        </mxCell>
        <mxCell id="OPx8XuJDMkaGOAgYKpWS-8" value="&lt;font size=&quot;3&quot;&gt;MiniSatUP&lt;/font&gt;" style="rounded=1;whiteSpace=wrap;html=1;fillColor=#f8cecc;strokeColor=#b85450;dashed=1;strokeWidth=2;" vertex="1" parent="1">
          <mxGeometry x="340" y="310" width="100" height="30" as="geometry" />
        </mxCell>
      </root>
    </mxGraphModel>
  </diagram>
</mxfile>
